<?xml version="1.0" encoding="utf-8"?>
<!-- Generator: Adobe Illustrator 19.0.0, SVG Export Plug-In . SVG Version: 6.00 Build 0)  -->
<svg version="1.1" xmlns="http://www.w3.org/2000/svg" xmlns:xlink="http://www.w3.org/1999/xlink" x="0px" y="0px"
	 viewBox="0 0 277.1 277.1" style="enable-background:new 0 0 277.1 277.1;" xml:space="preserve">
<style type="text/css">
	.st0{fill:#E6E6E6;}
	.st1{fill:#BBB5E2;stroke:#000000;stroke-width:2;stroke-miterlimit:10;}
	.st2{fill:#FFEBC7;stroke:#000000;stroke-width:2;stroke-miterlimit:10;}
	.st3{fill:#1A1A1A;stroke:#000000;stroke-width:2;stroke-miterlimit:10;}
	.st4{fill:#150B3F;}
	.st5{fill:#E5BB77;}
	.st6{fill:#EBE6FF;stroke:#000000;stroke-width:2;stroke-miterlimit:10;}
	.st7{fill:#BBB5E2;}
	.st8{fill:#7A7793;stroke:#000000;stroke-width:2;stroke-miterlimit:10;}
	.st9{fill:none;stroke:#000000;stroke-width:2;stroke-miterlimit:10;}
	.st10{fill:none;stroke:#662D91;stroke-width:2;stroke-miterlimit:10;}
	.st11{fill:none;stroke:#FFFFFF;stroke-width:3;stroke-miterlimit:10;}
	.st12{fill:#4D4D4D;}
</style>
<g id="Layer_3">
	<ellipse id="XMLID_8_" class="st0" cx="128.9" cy="125.8" rx="119.7" ry="118.5"/>
</g>
<g id="hand">
	<path id="arm" class="st1" d="M44.7,158.2c1.4-0.6,4.2-1.9,6.6-4.7c2.8-3.3,3.6-6.9,3.8-8.4c0.9,1.5,7.2,12,19.6,14
		c11.5,1.8,23.5-4.5,29.6-15.9c0.7,0,4.3,0,7.3,3.6c1.9,2.3,3.2,5.5,3.3,9.1l0.7,19.7c0.3,7.2-4.1,13.3-9.7,13.5
		c-2.1,1.9-10.6,9-23.3,9c-11.9,0-19.9-6.4-22.9-8.9C46.1,178,44.9,161.5,44.7,158.2z"/>
	<path id="hand_1_" class="st2" d="M51.5,136.8c-1.1,1.6-2.5,2.6-3.7,2.4c-1.2-0.2-1.8-1.7-2.3-3.1c-0.5-1.2-0.3-1.7-1-5
		c-0.1-0.7-0.2-1.1-0.4-1.7c-0.8-3.3-1.2-4.9-2.1-5.4c-0.9-0.4-2.2-0.2-2.9,0.4c-1.2,1-1,3.3-0.8,5.9c0,0,0,0.2,0,0.4
		c0.1,2.4,0.3,4.1,0.3,6c0.1,2.4,0,2.7-0.2,2.8c-0.5,0.2-1.5-1.1-2.4-2.4c-1.3-1.8-1.9-3.1-2.5-3.9c-2.7-4-4.6-6.6-6.8-6.3
		c-0.1,0-1.3,0.2-2,1c-1.6,2.1,1.3,6.8,2.9,8.8c0.8,1,1.7,2.3,3.5,5c0.3,0.4,0.7,1.1,0.4,1.5c-0.3,0.3-1,0.2-1.3,0.1
		c-2.2-1.1-4.2-1.9-5.7-2.4c-3.9-1.3-5-1-5.5-0.6c-0.7,0.5-1.3,1.4-1.2,2.3c0.2,1.6,2.6,2.6,5.9,3.9c1.8,0.7,2.7,1.2,4.4,2.1
		c0.9,0.5,1.6,0.9,1.5,1.4c-0.1,0.7-1.5,1.1-1.7,1.1c-0.6-0.1-1.6-0.1-2.7,0c-1.5,0.1-3,0.3-3.5,1.2c-0.3,0.4-0.3,1,0,1.5
		c0.7,1.5,3.5,0.7,6.9,1.8c1.6,0.5,2.9,1.2,4,2.1c1.2,0.9,3.8,2.6,7.7,3c1,0.1,4.5,0.5,7.7-1c4.6-2.2,7.3-7.9,6.8-14.3
		c0.4-1.5,1-3.2,2-5.1c1.5-2.8,3.2-4.3,2.6-5.4c-0.4-0.8-1.6-0.9-2.1-0.9C54.2,133.7,51.8,136.5,51.5,136.8z"/>
	<g id="hand-crease">
		<path id="XMLID_21_" d="M45.4,154.1c0,0-0.1-0.2-0.3-0.4c-0.2-0.3-0.4-0.7-0.6-1.2c-0.2-0.5-0.4-1.2-0.5-1.9
			c0-0.4-0.1-0.7-0.1-1.1c0-0.4,0-0.8,0.1-1.2c0.1-0.8,0.4-1.6,0.8-2.2c0.2-0.3,0.4-0.6,0.6-0.9c0.2-0.3,0.5-0.5,0.8-0.7
			c0.5-0.4,1-0.5,1.4-0.5c0.4,0,0.5,0,0.5,0s-0.1,0.1-0.4,0.4c-0.1,0.1-0.2,0.3-0.4,0.4c-0.1,0.2-0.2,0.4-0.4,0.6
			c-0.5,0.8-0.8,2-1,3.3c-0.1,0.6-0.2,1.3-0.2,1.9c-0.1,0.6-0.1,1.2-0.1,1.8c0,0.5-0.1,1-0.1,1.3C45.5,154,45.4,154.1,45.4,154.1z"
			/>
	</g>
</g>
<g id="body">
	<path id="XMLID_58_" class="st1" d="M190,225.8c-2.8-2.1,4.8-11.8,7.8-26c5.4-25.3-7-50.7-4.5-51.2c0.1,0,0.2,0,0.5,0.1
		c4.3,0.8,12.4,3,17.5,9.9c2.2,2.9,2.9,10.6,4.3,25.9c0,0,1.6,17.9-3,27.5c-0.3,0.6-0.6,1.1-0.6,1.1c-1.3,2-2.9,3-4,3.8
		c-3.1,2.1-2.8,2.4-5.3,4C201.2,221.9,192.5,227.6,190,225.8z"/>
	<path id="XMLID_57_" class="st3" d="M198.4,72.6c-2.2,16.6-0.5,29.5,1.2,37.8c2.6,12.1,5.8,16.1,9.2,18.4c7.5,4.9,17.4,1.8,17.4,2
		c0,0.3-16.8,7.6-34.4,1.4c-21.4-7.5-31.3-29.5-34.3-40.6c-2.8-10.2-4.8-17.6-5.9-21.4c-3.5-12.8-4.8-17.2-2.3-22.6
		c2.7-5.7,8.1-9.1,9-9.6c2.1-1.2,6-3.2,11.3-3.6c0,0,5.4-0.5,11,1.4C189.4,38.7,197.2,53,198.4,72.6z"/>
	<polyline id="XMLID_4_" class="st4" points="128.5,134.2 110,137.8 107.4,147.2 136.1,160.6 169.6,159.8 180.1,142.7 168.6,134.2 
		164.2,133 	"/>
	<path id="XMLID_56_" class="st3" d="M192.5,97.8l-8.9-1c0.7,9.2,1.4,18.4,2.1,27.7c1.8-2.1,4.9-6.4,6.5-12.8
		C193.7,105.7,193,100.6,192.5,97.8z"/>
	<path id="XMLID_55_" class="st3" d="M96.7,97.8l8.9-1c-0.7,9.2-1.4,18.4-2.1,27.7c-1.8-2.1-4.9-6.4-6.5-12.8
		C95.5,105.7,96.1,100.6,96.7,97.8z"/>
	<path id="XMLID_54_" class="st2" d="M197.7,95.2c0,1.8-1.5,3.3-3.3,3.3H193c-1.8,0-3.3-1.5-3.3-3.3v-6.4c0-1.8,1.5-3.3,3.3-3.3h1.4
		c1.8,0,3.3,1.5,3.3,3.3V95.2z"/>
	<path id="XMLID_53_" class="st2" d="M99.7,95.2c0,1.8-1.5,3.3-3.3,3.3H95c-1.8,0-3.3-1.5-3.3-3.3v-6.4c0-1.8,1.5-3.3,3.3-3.3h1.4
		c1.8,0,3.3,1.5,3.3,3.3V95.2z"/>
	<path id="XMLID_52_" class="st2" d="M171.7,166.8c-17.9-0.3-35.8-0.7-53.7-1c4.3-8.5,8.7-18.5,12.3-29.8c1.7-5.4,3.2-10.6,4.3-15.5
		H159c0.8,5.1,1.8,10.5,3.2,16.2C164.9,148,168.2,158.1,171.7,166.8z"/>
	<path id="XMLID_2_" class="st5" d="M163,143.8c-3.6,1.3-9.5,2.9-16.9,2.8c-7.5-0.2-13.4-2.1-17-3.6c0.3-1.1,0.6-2.1,1-3.3
		c0.5-1.5,1-2.9,1.5-4.3c9.8-0.3,19.6-0.6,29.3-0.8c0.5,1.8,0.9,3.6,1.3,5.5C162.5,141.3,162.7,142.5,163,143.8z"/>
	<circle id="XMLID_51_" class="st2" cx="144.8" cy="88.3" r="47.9"/>
	<path id="XMLID_50_" class="st6" d="M94,240.9c-3-1-0.8-24.5-1.5-39.5c-0.7-13.8-4.4-33.1,0.5-41.9c1-1.8,2.2-3.4,2.3-3.4
		c3.8-4.9,8.6-7.4,11.8-8.7c5.7,4,19.4,12.5,38.8,13.8c22.4,1.5,38.9-7.5,44.7-11.1c2.4,0.4,6.4,1.5,9.1,4.8
		c2.3,2.9,2.8,6.1,2.9,7.7c0.8,7.4,2.3,28.1,3.8,56c-7.9,6.3-15.2,10.6-20.7,13.5c-8.2,4.3-14.6,6.5-16.1,7
		c-5.5,1.9-9.8,2.8-14.4,3.8c-7.1,1.5-11.7,2.5-17.9,3c0,0-10.5,0.7-24.4-1.3c-0.4-0.1-1.7-0.2-3.3-0.5c-1.4-0.2-5.2-0.9-8.1-1.5
		c-0.9-0.2-1.8-0.4-1.8-0.4c-0.2-0.1-1.1-0.3-2.1-0.5C95.8,241.4,94.1,241,94,240.9z"/>
	<path id="XMLID_9_" class="st7" d="M99.8,152.3c2.1,2.1,4.3,4.3,6.4,6.4c3.3,2,7.9,4.4,13.8,6.6c5,1.9,13.7,5,25.5,4.9
		c3.2,0,13.6-0.3,25.7-5.3c5.4-2.2,9.6-4.7,12.5-6.7c2.5-2.2,5.1-4.4,7.6-6.6c-8.3,4.1-23.6,10.3-43.8,10.8
		C125.3,162.9,108.4,156.3,99.8,152.3z"/>
	<path id="XMLID_49_" class="st8" d="M97,148.5c-0.5-1.6-0.7-3.6,0-5.6c3.5-10.7,29.6-11.8,30.4-9c0.3,1.2-3.4,3.8-18.3,9.8
		c6-1.5,14.8-2.7,21.9,1.8c7.9,5.1,8.1,13.7,13.7,14.3c6.3,0.7,8.8-9.9,20-14.7c6.6-2.8,13.2-2.4,17.7-1.5
		c-15.1-6.1-19.1-8.9-18.7-10.2c0.8-3,27.7-1.8,31,8.7c0.5,1.7,0.3,3.3,0,4.7c-3.6,3.5-21.3,20.2-49.3,20.3
		C118.5,167.3,100.9,152,97,148.5z"/>
	<path id="XMLID_48_" class="st9" d="M120.9,162.9c0,20.9,3.8,37.7,8.4,37.7"/>
	<path id="XMLID_47_" class="st9" d="M170.7,162c0,21.9-3.7,39.6-8.3,39.6"/>
	<ellipse id="XMLID_46_" cx="130.9" cy="200.8" rx="2.5" ry="2"/>
	<ellipse id="XMLID_45_" cx="160.9" cy="201.8" rx="2.5" ry="2"/>
	<path id="XMLID_44_" class="st1" d="M114.2,244.5c0.5-0.8,1.1-1.6,2-2.5c3.1-2.9,6.9-3.4,8.5-3.6c15.8-0.1,31.6-0.2,47.3-0.2
		c0.2-0.1,0.3-0.1,0.3-0.1c0-0.1-24.5,9.1-51.5,7.1C117.8,245,115.4,244.7,114.2,244.5z"/>
	<path id="XMLID_3_" class="st5" d="M97.3,84.7c2.3,0.6,20.2,5.1,34.1-4.5c12.9-8.9,12.5-23.1,12.4-25.4c0-0.7,0-2.2-1-3.8
		c-1.6-2.9-4.6-4.2-5.3-4.5c-7.4,0.1-24,1.3-32.7,12.2C97.3,68.2,96.1,84.3,97.3,84.7C97.3,84.7,97.3,84.7,97.3,84.7z"/>
	<path id="XMLID_5_" class="st5" d="M190.2,89.8c-2,0.5-18.1,4.3-33.4-7.4c-14.2-10.9-16.9-26.8-17.3-29.3c-0.2-0.8-0.4-2.4,0.1-4.2
		c0.9-3.1,3.5-4.4,4-4.6c7.1,0.6,23.1,3.1,33.8,15.9C186.7,71.3,191.3,89.3,190.2,89.8C190.3,89.8,190.2,89.8,190.2,89.8z"/>
	<path id="XMLID_43_" class="st3" d="M97.9,84c2.6,0.2,23.3,1.3,36.4-11.9c12.2-12.3,8.5-27.6,7.9-29.9c-0.1-0.8-0.5-2.3-1.9-3.9
		c-2.4-2.8-6-3.6-6.8-3.7c-8.1,1.6-26.1,6.4-33.2,19.9C94.1,66.2,96.4,83.8,97.9,84C97.8,84.1,97.9,84.1,97.9,84z"/>
	<path id="XMLID_42_" class="st3" d="M196.9,87c-2.4,0.6-21.4,4.6-39.2-9.7c-16.5-13.3-19.2-32.1-19.6-35.1c-0.2-1-0.4-2.9,0.2-4.9
		c1.2-3.7,4.3-5.1,4.9-5.4c8.3,0.9,27.2,4.4,39.4,19.8C193.2,65.1,198.1,86.5,196.9,87C196.9,87,196.9,87,196.9,87z"/>
	<path id="XMLID_41_" class="st10" d="M139.7,98.1c0,2.4-2,4.4-4.4,4.4h-34.2c-2.4,0-4.4-2-4.4-4.4V78.9c0-2.4,2-4.4,4.4-4.4h34.2
		c2.4,0,4.4,2,4.4,4.4V98.1z"/>
	<path id="XMLID_40_" class="st10" d="M191.7,98.1c0,2.4-2,4.4-4.4,4.4h-34.2c-2.4,0-4.4-2-4.4-4.4V78.9c0-2.4,2-4.4,4.4-4.4h34.2
		c2.4,0,4.4,2,4.4,4.4V98.1z"/>
	<line id="XMLID_39_" class="st10" x1="138.7" y1="89.5" x2="148.7" y2="89.5"/>
	<path id="XMLID_38_" class="st9" d="M110,94.9c0-4.5,4.2-8.1,9.3-8.1"/>
	<path id="XMLID_37_" class="st9" d="M130.1,94.9c0-4.5-4.8-8.1-10.8-8.1"/>
	<path id="XMLID_36_" class="st9" d="M158,94.9c0-4.5,4.2-8.1,9.3-8.1"/>
	<path id="XMLID_34_" class="st9" d="M178.1,94.9c0-4.5-4.8-8.1-10.8-8.1"/>
	<path id="XMLID_33_" class="st9" d="M134,121.1c0,3.2,4.3,5.7,9.5,5.7"/>
	<path id="XMLID_32_" class="st9" d="M154.6,121.1c0,3.2-5,5.7-11.1,5.7"/>
	<ellipse id="XMLID_31_" class="st11" cx="129" cy="126.8" rx="120.5" ry="119.3"/>
	<path id="XMLID_1_" class="st8" d="M143.5,60"/>
	<path id="XMLID_6_" class="st5" d="M139,108.1c1.7,0.7,3.4,1.3,5.2,2c2.7-1.1,5.3-2.1,5.2-2.2c0,0,0,0,0,0
		C148.9,107.8,140.2,108,139,108.1z"/>
	<g id="XMLID_13_">
		<path id="XMLID_20_" class="st12" d="M139.5,53.1c-1.6,2-3.2,4-4.9,6c-1.6,2-3.3,4-5,5.9l-1.1,1.4l0-1.8l0-6.3l0.1-6.3l1.4,0.8
			l-0.7,0.5l0.1-0.1c-1.9,1.7-3.9,3.4-5.8,5.1c-2,1.7-3.9,3.4-5.9,5l-1.2,1l-0.4-1.6c-0.6-2.8-1.3-5.6-1.9-8.5l1.5,0.5
			c-3.2,2.5-6.4,5.1-9.7,7.6l-1.4,1.1l0.2-1.7l1-7.2l0.8,0.4c-2.7,2.3-5.3,4.6-8,6.8c2.4-2.6,4.9-5,7.3-7.5l0.9-1l-0.1,1.4l-0.6,7.2
			l-1.2-0.6c3.1-2.7,6.2-5.3,9.4-7.9l1.1-0.9l0.4,1.4c0.7,2.8,1.4,5.6,2.1,8.4l-1.6-0.5c1.9-1.7,3.9-3.3,5.9-5c2-1.7,3.9-3.3,5.9-5
			l0.1,0l0,0l0.7-0.4l1.5-0.9l-0.1,1.7l-0.3,6.3l-0.3,6.3l-1.1-0.5c1.8-1.9,3.6-3.7,5.4-5.6C135.9,56.7,137.7,54.9,139.5,53.1z"/>
	</g>
	<g id="XMLID_7_">
		<path id="XMLID_18_" class="st12" d="M142.7,49.4c2.1,2.8,4.1,5.5,6.1,8.3c2,2.8,4,5.6,6,8.4l-1.2,0.4l-0.4-9.3l-0.3-9.3l-0.1-2
			l1.6,1.3l0.8,0.7l0,0l0,0.1l6.6,7.4l6.6,7.4l-1.7,0.5c0.8-4.2,1.5-8.4,2.3-12.5l0.3-1.8l1.2,1.4c3.5,3.8,7,7.7,10.5,11.6l-1.2,0.5
			l-0.6-10.7l-0.1-1.6l0.9,1.2c2.7,3.6,5.5,7.2,8.2,10.9c-3-3.4-6-6.9-8.9-10.3l0.8-0.3l1.1,10.6l0.2,2l-1.4-1.5
			c-3.6-3.8-7.2-7.5-10.8-11.3l1.6-0.5c-0.7,4.2-1.4,8.4-2.2,12.5l-0.4,2L167,64l-6.6-7.4l-6.5-7.5l0.1,0.1l-0.8-0.7l1.5-0.7
			l0.1,9.3l0,9.3l0,2.2l-1.2-1.8c-1.9-2.9-3.7-5.8-5.5-8.7C146.3,55.2,144.5,52.4,142.7,49.4z"/>
	</g>
</g>
</svg>
